External Loads File
version=1
nRows=77
nColumns=13
Range=5.000000e-03-10 seconds
endheader
time 	forceRightX 	forceRightY 	forceRightZ 	pointRightX 	pointRightY 	pointRightZ 	forceLeftX 	forceLeftY 	forceLeftZ 	pointLeftX 	pointLeftY 	pointLeftZ 		
2.505000 37.104796 1055.194438 -0.000000 0.356901 0.192964 -0.111458 38.023159 -5.826989 -0.000000 0.177739 0.468031 -0.358295
2.510000 57.167868 1030.461412 -0.000000 0.349451 0.186495 -0.111408 30.380364 -1.605232 -0.000000 0.184706 0.475312 -0.358314
2.515000 75.399407 999.587561 -0.000000 0.341625 0.180689 -0.111335 22.634975 5.356374 -0.000000 0.191921 0.482185 -0.358327
2.520000 91.438683 963.170169 -0.000000 0.333455 0.175390 -0.111233 14.898606 14.538135 -0.000000 0.199327 0.488339 -0.358168
2.525000 106.588322 921.774350 -0.000000 0.324948 0.170775 -0.111062 7.213503 25.086082 -0.000000 0.207353 0.493882 -0.357966
2.530000 120.574377 876.178465 -0.000000 0.316116 0.166684 -0.110843 -0.473411 35.962647 -0.000000 0.215698 0.498932 -0.357838
2.535000 132.870154 827.293077 -0.000000 0.306826 0.163288 -0.110595 -8.309944 46.065128 -0.000000 0.224151 0.502617 -0.357817
2.540000 143.679844 775.967492 -0.000000 0.297600 0.160548 -0.110650 -16.479090 54.424450 -0.000000 0.232817 0.506060 -0.357774
2.545000 154.052218 722.824274 -0.000000 0.287968 0.158548 -0.110570 -25.117034 60.377497 -0.000000 0.241699 0.508778 -0.357980
2.550000 164.851123 668.312998 -0.000000 0.278023 0.157240 -0.110508 -34.297780 63.643995 -0.000000 0.251263 0.510739 -0.358891
2.555000 173.500531 613.561700 -0.000000 0.268036 0.156790 -0.110493 -44.344508 64.130953 -0.000000 0.260381 0.512002 -0.359121
2.560000 181.412548 558.583955 -0.000000 0.257920 0.157118 -0.110589 -55.119078 62.252979 -0.000000 0.269607 0.512485 -0.359235
2.565000 188.118479 503.623608 -0.000000 0.247900 0.158254 -0.110645 -66.534058 58.608794 -0.000000 0.278892 0.512212 -0.359551
2.570000 193.076561 448.842872 -0.000000 0.238034 0.160035 -0.110748 -78.410366 53.937939 -0.000000 0.288032 0.511194 -0.359595
2.575000 196.056377 394.265565 -0.000000 0.228363 0.162485 -0.110817 -90.472894 49.102889 -0.000000 0.297107 0.509697 -0.359832
2.580000 196.703053 340.024947 -0.000000 0.219047 0.165853 -0.110935 -102.426093 44.964184 -0.000000 0.305996 0.506971 -0.360080
2.585000 194.625012 286.445145 -0.000000 0.210059 0.169804 -0.111000 -113.981277 42.281661 -0.000000 0.314728 0.503753 -0.360169
2.590000 189.481980 234.116267 -0.000000 0.201556 0.174141 -0.111050 -124.936848 41.619700 -0.000000 0.323141 0.499831 -0.360404
2.595000 181.500433 183.548331 -0.000000 0.193429 0.179205 -0.111184 -135.175372 43.558109 -0.000000 0.331126 0.495185 -0.360604
2.600000 171.120970 135.287736 -0.000000 0.185623 0.184996 -0.111252 -144.704347 48.695809 -0.000000 0.338754 0.489371 -0.360743
2.605000 158.569888 90.426295 -0.000000 0.178050 0.191089 -0.111378 -153.793958 57.211902 -0.000000 0.345992 0.483388 -0.360955
2.610000 144.604870 49.700644 -0.000000 0.171111 0.197793 -0.111420 -162.744088 69.501633 -0.000000 0.352805 0.476681 -0.361106
2.615000 130.045279 13.641673 -0.000000 0.164366 0.204978 -0.111474 -171.810680 86.077964 -0.000000 0.359209 0.469535 -0.361248
2.620000 115.640318 -17.247145 -0.000000 0.158091 0.212581 -0.111469 -181.242892 107.278555 -0.000000 0.365198 0.461769 -0.361273
2.625000 101.995294 -42.953284 -0.000000 0.152045 0.220683 -0.111520 -190.833977 133.902109 -0.000000 0.370787 0.452741 -0.361233
2.630000 89.717624 -63.025758 -0.000000 0.146318 0.229128 -0.111464 -200.807901 165.636429 -0.000000 0.375565 0.443422 -0.361434
2.635000 79.095513 -77.729722 -0.000000 0.140930 0.237838 -0.111423 -210.539723 202.938698 -0.000000 0.379968 0.433366 -0.361361
2.640000 70.345129 -87.233619 -0.000000 0.135975 0.246923 -0.111395 -219.537528 245.562399 -0.000000 0.384033 0.422964 -0.361317
2.645000 63.473444 -91.913176 -0.000000 0.131431 0.256455 -0.111343 -227.067635 293.152402 -0.000000 0.387563 0.412202 -0.361439
2.650000 58.570847 -92.111659 -0.000000 0.127359 0.266227 -0.111218 -233.156114 344.563678 -0.000000 0.390813 0.401810 -0.361357
2.655000 55.044396 -88.642972 -0.000000 0.123710 0.276241 -0.111150 -235.763510 399.970689 -0.000000 0.393463 0.390197 -0.361692
2.660000 53.001661 -81.896306 -0.000000 0.120706 0.286532 -0.111169 -235.597803 457.587912 -0.000000 0.395674 0.378600 -0.361880
2.665000 52.213716 -72.518181 -0.000000 0.118140 0.297002 -0.111134 -232.400134 516.412761 -0.000000 0.397484 0.366924 -0.361785
2.670000 52.472484 -61.199288 -0.000000 0.116284 0.307783 -0.111146 -225.941816 575.499750 -0.000000 0.398835 0.355075 -0.361903
2.675000 53.673672 -48.590057 -0.000000 0.114910 0.318584 -0.111242 -216.941483 633.691505 -0.000000 0.399707 0.343102 -0.362040
2.680000 55.657638 -35.368697 -0.000000 0.114614 0.329493 -0.111224 -206.256869 690.071578 -0.000000 0.399896 0.331255 -0.362370
2.685000 58.130178 -22.378680 -0.000000 0.114656 0.340517 -0.111400 -192.614637 744.517468 -0.000000 0.399832 0.318952 -0.362425
2.690000 60.911467 -10.020826 -0.000000 0.115354 0.351510 -0.111678 -179.490362 795.703333 -0.000000 0.399232 0.307282 -0.362569
2.695000 63.542796 1.031139 -0.000000 0.116832 0.362517 -0.111944 -165.373097 843.700379 -0.000000 0.398000 0.295712 -0.362909
2.700000 65.595569 10.384950 -0.000000 0.118800 0.373597 -0.112290 -150.565753 887.993000 -0.000000 0.396397 0.284368 -0.363223
2.705000 66.603880 17.849279 -0.000000 0.121354 0.384378 -0.112669 -136.161327 927.895203 -0.000000 0.394332 0.273361 -0.363612
2.710000 66.176985 23.239570 -0.000000 0.124537 0.395055 -0.113089 -121.103410 963.034409 -0.000000 0.391920 0.262580 -0.363247
2.715000 64.032076 26.571522 -0.000000 0.128278 0.405666 -0.113554 -104.915349 992.879514 -0.000000 0.388780 0.252170 -0.363409
2.720000 59.999521 28.001035 -0.000000 0.132599 0.416147 -0.114074 -87.828296 1016.799294 -0.000000 0.385240 0.242140 -0.363566
2.725000 54.060578 27.706092 -0.000000 0.137435 0.426327 -0.114649 -69.950103 1034.155610 -0.000000 0.381226 0.232488 -0.363567
2.730000 46.329963 25.877807 -0.000000 0.142870 0.436241 -0.115187 -51.872827 1044.272383 -0.000000 0.376780 0.223646 -0.363666
2.735000 37.114176 22.541416 -0.000000 0.148792 0.445882 -0.115689 -30.895090 1046.675730 -0.000000 0.371866 0.214542 -0.363744
2.740000 26.672971 17.945970 -0.000000 0.155371 0.455073 -0.116079 -9.626164 1040.796767 -0.000000 0.366452 0.206274 -0.363743
2.745000 15.373112 12.226737 -0.000000 0.162021 0.463786 -0.116794 10.089100 1026.547601 -0.000000 0.360738 0.198833 -0.363633
2.750000 3.640415 5.412921 -0.000000 0.169254 0.471948 -0.116973 31.664044 1004.172683 -0.000000 0.354425 0.191248 -0.363693
2.755000 -8.259810 -2.338393 -0.000000 0.177047 0.479738 -0.117760 51.686902 974.313644 -0.000000 0.347879 0.184956 -0.363575
2.760000 -20.104111 -10.883596 -0.000000 0.185213 0.486794 -0.118532 71.478729 937.816908 -0.000000 0.340798 0.178852 -0.363648
2.765000 -31.763685 -20.049007 -0.000000 0.193983 0.493322 -0.118698 90.395825 895.799931 -0.000000 0.333453 0.173371 -0.363610
2.770000 -43.134004 -29.704300 -0.000000 0.202597 0.499390 -0.119336 107.185787 849.600164 -0.000000 0.325672 0.168433 -0.363598
2.775000 -54.173598 -39.624178 -0.000000 0.211596 0.504777 -0.119807 122.428411 800.367869 -0.000000 0.317616 0.164230 -0.363642
2.780000 -64.861378 -49.507090 -0.000000 0.220737 0.509420 -0.120140 136.111052 749.200968 -0.000000 0.309202 0.160483 -0.363688
2.785000 -75.161840 -58.974216 -0.000000 0.229980 0.513599 -0.120635 147.918704 697.109455 -0.000000 0.300619 0.157463 -0.363688
2.790000 -85.157843 -67.366282 -0.000000 0.240017 0.516777 -0.121135 159.168056 644.511267 -0.000000 0.291808 0.155098 -0.363651
2.795000 -94.534685 -74.420112 -0.000000 0.249589 0.519344 -0.121318 167.568760 592.380827 -0.000000 0.282889 0.153383 -0.363678
2.800000 -103.282596 -79.454912 -0.000000 0.259577 0.521114 -0.121594 174.551558 540.565670 -0.000000 0.273906 0.152407 -0.363665
2.805000 -111.098473 -82.224836 -0.000000 0.269355 0.522185 -0.121814 179.201651 489.317405 -0.000000 0.264773 0.152170 -0.363698
2.810000 -117.790923 -82.480912 -0.000000 0.279302 0.522462 -0.122120 181.458117 438.565954 -0.000000 0.255843 0.152730 -0.363646
2.815000 -123.116693 -80.234803 -0.000000 0.289045 0.521872 -0.122163 180.701924 388.536900 -0.000000 0.247181 0.154073 -0.363358
2.820000 -127.063808 -75.396494 -0.000000 0.298537 0.520259 -0.122233 177.083797 339.345707 -0.000000 0.238610 0.156178 -0.363161
2.825000 -129.699869 -68.056023 -0.000000 0.307785 0.518228 -0.122169 170.420183 291.515831 -0.000000 0.230258 0.158981 -0.362889
2.830000 -131.329426 -58.294674 -0.000000 0.316627 0.515431 -0.122073 160.799918 245.744598 -0.000000 0.222153 0.162483 -0.362549
2.835000 -132.532866 -46.050315 -0.000000 0.325184 0.511870 -0.121974 148.688342 202.785217 -0.000000 0.214326 0.166697 -0.362175
2.840000 -134.063082 -31.232781 -0.000000 0.333326 0.507681 -0.121782 134.568241 163.599318 -0.000000 0.206760 0.171434 -0.361734
2.845000 -136.878409 -13.421742 -0.000000 0.341135 0.502569 -0.121557 119.306278 128.954372 -0.000000 0.199472 0.176633 -0.361794
2.850000 -141.970897 7.888605 -0.000000 0.348331 0.496716 -0.121336 103.734638 99.549876 -0.000000 0.192436 0.182294 -0.360900
2.855000 -150.166249 33.897039 -0.000000 0.355550 0.489841 -0.120522 89.038324 75.426882 -0.000000 0.185396 0.188435 -0.360061
2.860000 -161.843578 65.443053 -0.000000 0.362154 0.481807 -0.119855 75.897768 56.670346 -0.000000 0.178074 0.194927 -0.357946
2.865000 -177.106275 102.740029 -0.000000 0.368249 0.473089 -0.118719 64.808530 43.124377 -0.000000 0.171609 0.201857 -0.357505
2.870000 -195.023500 146.465943 -0.000000 0.374391 0.463954 -0.118165 56.377757 33.900218 -0.000000 0.165377 0.209393 -0.357388
2.875000 -214.625817 195.707809 -0.000000 0.379989 0.454415 -0.118187 50.677230 28.323464 -0.000000 0.159415 0.217199 -0.357258
2.880000 -234.692093 249.146458 -0.000000 0.385081 0.444623 -0.117860 47.591366 25.573667 -0.000000 0.153952 0.225419 -0.357182
2.885000 -253.422930 305.666938 -0.000000 0.389888 0.434138 -0.117570 46.824081 24.811911 -0.000000 0.148719 0.233989 -0.357609
